<svg width="2262" height="300" viewBox="0 0 2262 300" fill="none" xmlns="http://www.w3.org/2000/svg">
<g clip-path="url(#clip0_1304_2291)">
<path d="M134.59 203.824H128.062L164.286 96.5601H170.815L134.59 203.824ZM232.014 132.4V100.4H250.062V190H234.318L232.526 180.912C228.174 186.544 221.774 190.768 212.302 190.768C194.638 190.768 181.711 177.84 181.711 156.976C181.711 136.624 194.639 123.44 212.174 123.44C221.262 123.44 227.79 127.024 232.014 132.4ZM216.271 176.048C226.127 176.048 232.271 168.368 232.271 157.232C232.271 145.968 226.127 138.16 216.271 138.16C206.415 138.16 200.142 145.84 200.142 157.104C200.142 168.368 206.415 176.048 216.271 176.048ZM291.318 190.768C269.43 190.768 256.245 177.584 256.245 157.232C256.245 136.752 269.686 123.44 290.038 123.44C309.75 123.44 323.062 135.728 323.318 155.056C323.318 156.976 323.19 159.152 322.806 161.2H275.062V162.096C275.446 171.44 281.461 177.072 290.549 177.072C297.845 177.072 302.966 173.872 304.502 167.728H322.294C320.246 180.528 308.854 190.768 291.318 190.768ZM275.446 149.424H305.142C303.862 141.36 298.358 136.88 290.166 136.88C282.358 136.88 276.47 141.616 275.446 149.424ZM343.495 190L319.816 124.208H339.144L355.016 171.568L370.632 124.208H389.576L365.896 190H343.495ZM400.07 203.824H393.543L429.767 96.5601H436.294L400.07 203.824ZM487.255 123.44C501.847 123.44 513.879 131.248 513.879 153.52V190H495.831V155.056C495.831 144.304 491.478 138.288 482.518 138.288C473.302 138.288 467.798 144.944 467.798 156.208V190H449.751V100.4H467.798V132.272C472.022 127.152 477.911 123.44 487.255 123.44ZM565.315 157.104V124.208H583.363V190H567.363L565.699 182.064C561.475 187.184 555.715 190.768 546.371 190.768C532.803 190.768 520.259 183.984 520.259 160.688V124.208H538.307V158.256C538.307 170.032 542.147 175.792 551.107 175.792C560.067 175.792 565.315 169.264 565.315 157.104ZM629.958 123.44C647.622 123.44 660.422 136.112 660.422 156.976C660.422 177.328 647.623 190.768 629.831 190.768C620.359 190.768 613.831 186.672 609.607 181.04L607.815 190H592.07V100.4H610.118V132.528C614.47 127.28 620.87 123.44 629.958 123.44ZM625.863 176.048C635.719 176.048 642.118 168.368 642.118 157.104C642.118 145.84 635.719 138.16 625.863 138.16C616.007 138.16 609.863 145.84 609.863 156.976C609.863 168.24 616.007 176.048 625.863 176.048ZM674.925 203.824H668.397L704.621 96.5601H711.149L674.925 203.824Z" fill="#F4F4F4"/>
<path d="M737.792 117.296C731.904 117.296 727.296 112.944 727.296 107.184C727.296 101.296 731.904 96.9441 737.792 96.9441C743.68 96.9441 748.288 101.296 748.288 107.184C748.288 112.944 743.68 117.296 737.792 117.296ZM728.576 190V139.44H718.336V124.208H746.624V190H728.576ZM793.028 123.44C807.236 123.44 819.396 130.992 819.396 153.52V190H801.348V155.312C801.348 144.176 797.124 138.288 788.036 138.288C778.692 138.288 773.316 144.944 773.316 156.336V190H755.268V124.208H771.012L772.676 132.4C776.9 127.28 782.916 123.44 793.028 123.44ZM826.928 190V119.344C826.928 107.056 833.456 100.4 846.768 100.4H861.488V115.76H850.096C846.384 115.76 844.592 117.424 844.592 121.136V124.208H861.488V139.44H844.976V190H826.928ZM901.58 124.208H904.652V140.592H897.484C886.732 140.592 882.636 147.76 882.636 157.744V190H864.588V124.208H880.972L882.636 134.064C886.22 128.176 891.34 124.208 901.58 124.208ZM936.688 123.44C955.12 123.44 965.744 131.632 965.744 147.376V190H949.872L948.464 181.68C943.728 187.312 937.712 190.768 928.496 190.768C914.16 190.768 904.688 183.856 904.688 171.312C904.688 157.36 915.184 149.552 935.024 149.552H947.952V146.352C947.952 140.464 943.728 136.624 936.176 136.624C929.136 136.624 924.4 139.824 923.632 144.688H906.224C907.504 131.888 919.28 123.44 936.688 123.44ZM932.592 177.712C942.064 177.712 947.824 171.824 947.952 162.864V161.584H934.768C927.216 161.584 922.864 164.656 922.864 170.16C922.864 174.768 926.576 177.712 932.592 177.712ZM970.211 168.112H987.363C988.003 173.872 992.995 177.84 1001.83 177.84C1009.38 177.84 1013.99 175.408 1013.99 170.8C1013.99 165.424 1009.51 165.04 998.883 163.632C983.523 161.84 971.619 158.384 971.619 144.816C971.619 131.76 983.011 123.184 999.907 123.312C1017.57 123.312 1029.73 131.12 1030.63 144.56H1013.35C1012.83 139.312 1007.84 136.112 1000.55 136.112C993.507 136.112 988.899 138.672 988.899 142.896C988.899 147.888 994.531 148.4 1004 149.552C1019.11 151.088 1031.65 154.544 1031.65 169.392C1031.65 182.448 1019.36 190.768 1001.7 190.768C983.395 190.768 970.979 182.192 970.211 168.112ZM1036.29 171.184V105.776H1054.34V124.208H1069.32V139.44H1054.34V168.24C1054.34 172.848 1056.13 174.768 1060.74 174.768H1070.09V190H1055.11C1042.57 190 1036.29 183.728 1036.29 171.184ZM1111.59 124.208H1114.67V140.592H1107.5C1096.75 140.592 1092.65 147.76 1092.65 157.744V190H1074.6V124.208H1090.99L1092.65 134.064C1096.23 128.176 1101.35 124.208 1111.59 124.208ZM1162.79 157.104V124.208H1180.84V190H1164.84L1163.17 182.064C1158.95 187.184 1153.19 190.768 1143.85 190.768C1130.28 190.768 1117.74 183.984 1117.74 160.688V124.208H1135.78V158.256C1135.78 170.032 1139.62 175.792 1148.58 175.792C1157.54 175.792 1162.79 169.264 1162.79 157.104ZM1220.52 190.768C1199.66 190.768 1186.99 177.84 1186.99 157.104C1186.99 136.752 1200.3 123.44 1221.16 123.44C1239.08 123.44 1250.22 133.168 1252.78 148.784H1233.96C1232.43 142.256 1227.95 138.16 1220.91 138.16C1211.44 138.16 1205.42 145.968 1205.42 157.104C1205.42 168.368 1211.44 176.048 1220.91 176.048C1227.95 176.048 1232.68 171.824 1233.96 165.168H1252.91C1250.35 180.912 1238.44 190.768 1220.52 190.768ZM1257.56 171.184V105.776H1275.61V124.208H1290.58V139.44H1275.61V168.24C1275.61 172.848 1277.4 174.768 1282.01 174.768H1291.35V190H1276.37C1263.83 190 1257.56 183.728 1257.56 171.184ZM1339.77 157.104V124.208H1357.82V190H1341.82L1340.15 182.064C1335.93 187.184 1330.17 190.768 1320.83 190.768C1307.26 190.768 1294.71 183.984 1294.71 160.688V124.208H1312.76V158.256C1312.76 170.032 1316.6 175.792 1325.56 175.792C1334.52 175.792 1339.77 169.264 1339.77 157.104ZM1403.52 124.208H1406.59V140.592H1399.42C1388.67 140.592 1384.58 147.76 1384.58 157.744V190H1366.53V124.208H1382.91L1384.58 134.064C1388.16 128.176 1393.28 124.208 1403.52 124.208ZM1441.2 190.768C1419.31 190.768 1406.13 177.584 1406.13 157.232C1406.13 136.752 1419.57 123.44 1439.92 123.44C1459.63 123.44 1472.94 135.728 1473.2 155.056C1473.2 156.976 1473.07 159.152 1472.69 161.2H1424.94V162.096C1425.33 171.44 1431.34 177.072 1440.43 177.072C1447.73 177.072 1452.85 173.872 1454.38 167.728H1472.18C1470.13 180.528 1458.74 190.768 1441.2 190.768ZM1425.33 149.424H1455.02C1453.74 141.36 1448.24 136.88 1440.05 136.88C1432.24 136.88 1426.35 141.616 1425.33 149.424ZM1523.87 160.944H1479.07V146.224H1523.87V160.944ZM1563.36 190.768C1542.49 190.768 1529.82 177.84 1529.82 157.104C1529.82 136.752 1543.13 123.44 1564 123.44C1581.92 123.44 1593.05 133.168 1595.61 148.784H1576.8C1575.26 142.256 1570.78 138.16 1563.74 138.16C1554.27 138.16 1548.25 145.968 1548.25 157.104C1548.25 168.368 1554.27 176.048 1563.74 176.048C1570.78 176.048 1575.52 171.824 1576.8 165.168H1595.74C1593.18 180.912 1581.28 190.768 1563.36 190.768ZM1633.55 190.768C1612.55 190.768 1598.86 177.328 1598.86 157.104C1598.86 136.88 1612.55 123.44 1633.55 123.44C1654.54 123.44 1668.23 136.88 1668.23 157.104C1668.23 177.456 1654.54 190.768 1633.55 190.768ZM1633.55 176.048C1643.66 176.048 1649.93 168.24 1649.93 157.104C1649.93 145.968 1643.66 138.16 1633.55 138.16C1623.43 138.16 1617.29 145.968 1617.29 157.104C1617.29 168.24 1623.43 176.048 1633.55 176.048ZM1753.05 123.44C1766.62 123.44 1777.37 131.12 1777.37 152.24V190H1759.32V153.264C1759.32 143.408 1755.74 138.288 1747.93 138.288C1740.12 138.288 1734.87 144.048 1734.87 154.032V190H1716.82V153.264C1716.82 143.408 1713.24 138.288 1705.3 138.288C1697.5 138.288 1692.38 144.304 1692.38 154.16V190H1674.33V124.208H1690.07L1691.74 132.4C1695.7 127.28 1701.46 123.568 1711.06 123.44C1719.13 123.312 1726.68 126.256 1730.78 134.576C1735.38 127.536 1743.06 123.44 1753.05 123.44ZM1863.58 123.44C1877.15 123.44 1887.9 131.12 1887.9 152.24V190H1869.85V153.264C1869.85 143.408 1866.27 138.288 1858.46 138.288C1850.65 138.288 1845.41 144.048 1845.41 154.032V190H1827.36V153.264C1827.36 143.408 1823.77 138.288 1815.84 138.288C1808.03 138.288 1802.91 144.304 1802.91 154.16V190H1784.86V124.208H1800.61L1802.27 132.4C1806.24 127.28 1812 123.568 1821.6 123.44C1829.66 123.312 1837.21 126.256 1841.31 134.576C1845.92 127.536 1853.6 123.44 1863.58 123.44ZM1907.83 117.296C1901.94 117.296 1897.34 112.944 1897.34 107.184C1897.34 101.296 1901.94 96.9441 1907.83 96.9441C1913.72 96.9441 1918.33 101.296 1918.33 107.184C1918.33 112.944 1913.72 117.296 1907.83 117.296ZM1898.62 190V139.44H1888.38V124.208H1916.66V190H1898.62ZM1924.28 171.184V105.776H1942.33V124.208H1957.31V139.44H1942.33V168.24C1942.33 172.848 1944.12 174.768 1948.73 174.768H1958.08V190H1943.1C1930.56 190 1924.28 183.728 1924.28 171.184ZM1961.57 171.184V105.776H1979.62V124.208H1994.59V139.44H1979.62V168.24C1979.62 172.848 1981.41 174.768 1986.02 174.768H1995.36V190H1980.38C1967.84 190 1961.57 183.728 1961.57 171.184ZM2031.39 190.768C2009.5 190.768 1996.32 177.584 1996.32 157.232C1996.32 136.752 2009.76 123.44 2030.11 123.44C2049.82 123.44 2063.13 135.728 2063.39 155.056C2063.39 156.976 2063.26 159.152 2062.88 161.2H2015.13V162.096C2015.52 171.44 2021.53 177.072 2030.62 177.072C2037.92 177.072 2043.04 173.872 2044.57 167.728H2062.36C2060.32 180.528 2048.92 190.768 2031.39 190.768ZM2015.52 149.424H2045.21C2043.93 141.36 2038.43 136.88 2030.24 136.88C2022.43 136.88 2016.54 141.616 2015.52 149.424ZM2101.92 190.768C2080.04 190.768 2066.85 177.584 2066.85 157.232C2066.85 136.752 2080.29 123.44 2100.64 123.44C2120.36 123.44 2133.67 135.728 2133.92 155.056C2133.92 156.976 2133.8 159.152 2133.41 161.2H2085.67V162.096C2086.05 171.44 2092.07 177.072 2101.16 177.072C2108.45 177.072 2113.57 173.872 2115.11 167.728H2132.9C2130.85 180.528 2119.46 190.768 2101.92 190.768ZM2086.05 149.424H2115.75C2114.47 141.36 2108.96 136.88 2100.77 136.88C2092.96 136.88 2087.08 141.616 2086.05 149.424Z" fill="#EC6342"/>
</g>
<defs>
<clipPath id="clip0_1304_2291">
<rect width="2006" height="108" fill="white" transform="translate(128 96)"/>
</clipPath>
</defs>
</svg>
